<?xml version="1.0" encoding="UTF-8" standalone="no"?><!DOCTYPE svg PUBLIC "-//W3C//DTD SVG 1.1//EN" "http://www.w3.org/Graphics/SVG/1.1/DTD/svg11.dtd"><svg width="100%" height="100%" viewBox="0 0 261 273" version="1.1" xmlns="http://www.w3.org/2000/svg" xmlns:xlink="http://www.w3.org/1999/xlink" xml:space="preserve" xmlns:serif="http://www.serif.com/" style="fill-rule:evenodd;clip-rule:evenodd;stroke-linejoin:round;stroke-miterlimit:2;"><path d="M129.486,42.064c86.431,0.75 123.051,95.429 69.539,154.986c-2.73,3.038 0.236,3.343 19.019,22.908c4.91,5.115 4.902,5.291 4.71,5.704c-0.243,0.523 -87.297,0.546 -90.206,0.285c-0.551,-0.049 -0.063,-20.9 -0.063,-20.9c0,0 -0.383,-30.191 -0.008,-30.569c0.884,-0.892 22.1,-0.394 33.791,-20.119c23.091,-38.958 -27.75,-79.547 -60.589,-50.657c-18.269,16.072 -12.817,26.596 -13.71,119.811c-0.03,3.131 -1.627,2.515 -17.468,2.515c-32.806,-0 -34.555,0.55 -34.528,-2.534c0.625,-71.878 -1.685,-93.535 2.552,-110.989c1.221,-5.031 8.578,-35.336 36.244,-53.619c23.554,-15.566 37.775,-15.886 50.718,-16.821Z" style="fill:#0a0a0a;"/></svg>